<svg data-v-0dd9719b="" version="1.0" xmlns="http://www.w3.org/2000/svg" xmlns:xlink="http://www.w3.org/1999/xlink"
    width="100%" height="100%" viewBox="0 0 120.000000 110.000000" preserveAspectRatio="xMidYMid meet"
    color-interpolation-filters="sRGB" style="margin: auto;">
    <g data-v-0dd9719b="" class="icon-text-wrapper icon-svg-group iconsvg" transform="translate(5,5)">
        <g class="iconsvg-imagesvg" fill="#8D6E63" transform="translate(24.638301849365234,0)">
            <g>
                <rect fill-opacity="0" stroke-width="2" x="0" y="0" width="73.20000000000003" height="72.30772270185909"
                    class="image-rect"></rect>
                <svg filter="red" x="0" y="0" width="73.20000000000003" height="72.30772270185909"
                    class="image-svg-svg primary" style="overflow: visible;">
                    <svg xmlns="http://www.w3.org/2000/svg" xmlns:xlink="http://www.w3.org/1999/xlink" version="1.1"
                        x="0px" y="0px" viewBox="107.6632308959961 117.75 808.3532104492188 798.5"
                        style="enable-background:new 0 0 1024 1024;" xml:space="preserve">
                        <g>
                            <path
                                d="M558.77,658.1l-14.2-14.08c44.38-44.76,64.87-101.02,57.68-158.43l19.85-2.48C630.06,546.74,607.57,608.88,558.77,658.1z">
                            </path>
                            <g>
                                <path fill="#FFBD4A"
                                    d="M856.53,228.46c0,33.58-27.32,60.9-60.91,60.9c-33.58,0-60.9-27.32-60.9-60.9s27.32-60.91,60.9-60.91    C829.21,167.55,856.53,194.88,856.53,228.46z">
                                </path>
                            </g>
                            <rect fill="#FFBD4A" x="785.62" y="117.75" width="20" height="25.9"></rect>
                            <rect fill="#FFBD4A" x="785.62" y="313.26" width="20" height="25.9"></rect>
                            <rect fill="#FFBD4A" x="880.43" y="218.46" width="25.9" height="20"></rect>
                            <rect fill="#FFBD4A" x="684.92" y="218.46" width="25.9" height="20"></rect>
                            <rect fill="#FFBD4A" x="851.8" y="149.33"
                                transform="matrix(0.7071 -0.7071 0.7071 0.7071 140.6119 658.137)" width="25.9"
                                height="20"></rect>
                            <rect fill="#FFBD4A" x="713.55" y="287.58"
                                transform="matrix(0.7071 -0.7071 0.7071 0.7071 2.3638 600.8728)" width="25.9"
                                height="20"></rect>
                            <rect fill="#FFBD4A" x="716.5" y="146.38"
                                transform="matrix(0.7071 -0.7071 0.7071 0.7071 100.1093 560.3641)" width="20"
                                height="25.9"></rect>
                            <rect fill="#FFBD4A" x="854.75" y="284.63"
                                transform="matrix(0.7071 -0.7071 0.7071 0.7071 42.845 698.607)" width="20"
                                height="25.9"></rect>
                            <path
                                d="M181.67,531.27c-17.91,0-32.71-5.97-41.91-17.25c-12.04-14.78-11.69-34.34-9.75-51.53c1.28-11.36,1.27-24.53-0.02-40.27   l0,0c-0.6-7.24-1.28-14.94-2.47-22.54c-0.15-0.96-0.33-2.01-0.51-3.13c-2.43-14.62-6.11-36.7,8.21-45.93   c14.58-9.39,34.6-0.03,47.85,6.16l1.42,0.66c74.95,34.88,147.59,15.99,231.71-5.88c84.56-21.99,140.94-29.11,232.6-10.17   c11.5,2.38,16.9,14.65,15.48,25.15c-1.18,8.72-1.81,18-2.48,27.81c-2.49,36.64-5.3,78.17-40.72,96.76   c-22.36,11.74-48.19,13.03-70.98,14.17c-49.23,2.46-79.32,1.99-108.43,1.54c-30.4-0.47-59.12-0.92-108.32,1.68   c-0.3,0.01-0.59,0.02-0.89,0.01c-10.34-0.38-60.4,7.52-133.87,21.11l-0.19,0.04C192.61,530.74,187,531.27,181.67,531.27z    M149.93,420.58c1.41,17.05,1.39,31.49-0.03,44.15c-1.47,13.05-1.99,27.62,5.38,36.65c10.47,12.84,32.88,9.84,39.5,8.62l0.19-0.04   c53.27-9.86,119.64-21.45,137.09-21.45c0.22,0,0.44,0,0.65,0.01c49.65-2.6,79.96-2.13,109.29-1.68   c28.78,0.45,58.55,0.91,107.12-1.52c20.73-1.04,44.23-2.21,62.69-11.9c25.52-13.39,27.72-45.94,30.06-80.4   c0.66-9.71,1.34-19.76,2.61-29.15c0.16-1.19-0.16-2.42-0.46-3.03c-87.33-17.95-141.5-11.04-222.77,10.09   c-50.25,13.06-98.85,25.7-147.18,25.7c-32.64,0-65.16-5.76-98-21.04l-1.45-0.68c-6.93-3.24-23.14-10.81-28.5-7.5   c-0.17,0.23-1.47,2.16-1.37,8.72c0.08,5.67,1.14,12.03,2,17.15c0.2,1.19,0.38,2.31,0.54,3.32   C148.58,404.85,149.33,413.31,149.93,420.58L149.93,420.58z">
                            </path>
                            <path
                                d="M487.97,916.25c-5.37,0-10.71-0.15-16.02-0.46c-19.42-1.13-38.61-4.33-57.17-7.44c-16.48-2.75-33.52-5.6-50.27-6.88   c-26.15-1.99-53.17-0.28-79.3,1.37c-10.51,0.67-21.38,1.35-32.12,1.8c-33.31,1.4-76.45,0.99-114.7-14.64   c-21.06-8.61-32.2-22.03-30.57-36.81c1.34-12.09,10.8-20.12,18.4-26.57c0.65-0.55,1.3-1.1,1.94-1.65   c18.13-15.57,31.83-36.95,37.6-58.65l19.33,5.14c-6.78,25.51-22.78,50.54-43.9,68.69c-0.67,0.57-1.35,1.15-2.03,1.73   c-5.16,4.38-11,9.34-11.47,13.52c-0.54,4.86,6.97,11.49,18.26,16.1c34.67,14.17,75.02,14.48,106.3,13.17   c10.53-0.44,21.29-1.12,31.69-1.78c26.81-1.7,54.54-3.45,82.08-1.35c17.65,1.35,35.13,4.27,52.04,7.09   c18.04,3.01,36.69,6.13,55.04,7.2c32.98,1.92,67.48-2.6,102.54-13.4l5.89,19.11C549.8,911.32,518.4,916.25,487.97,916.25z">
                            </path>
                            <path
                                d="M581.72,826.18c-2.74-21.28,4.82-41.24,12.81-59.85l18.38,7.88c-7.18,16.74-13.45,33.12-11.35,49.41L581.72,826.18z">
                            </path>
                            <path
                                d="M193.57,368.56l-16.95-10.62c14.58-23.27,34.56-55.14,66.34-66.64c7.11-2.57,14.25-3.93,21.16-5.24   c6.84-1.3,13.31-2.52,19.21-4.82c15.79-6.14,28.11-19.89,41.15-34.44c1.8-2.01,3.6-4.02,5.4-6c19.17-21.05,40.35-40.24,62.97-57.03   c11.32-8.41,23.8-15.87,38.25-13.58c12.46,1.98,21.11,10.52,28.73,18.07c4.47,4.42,8.69,8.59,13.16,11.08   c4.69,2.61,10.51,3.79,16.67,5.03c6.39,1.29,13,2.63,19.55,5.67c13.67,6.35,23.2,18.5,31.06,29.39c22.17,30.7,41.34,63.95,57,98.84   l-18.25,8.19c-15.1-33.66-33.6-65.73-54.97-95.32c-6.68-9.25-13.97-18.64-23.28-22.96c-4.4-2.05-9.59-3.1-15.09-4.21   c-7.04-1.42-15.02-3.04-22.42-7.16c-6.87-3.82-12.28-9.17-17.5-14.34c-6.28-6.21-11.69-11.57-17.8-12.53   c-7.16-1.14-15.38,4.08-23.2,9.88c-21.58,16.02-41.8,34.34-60.1,54.44c-1.77,1.94-3.53,3.91-5.3,5.88   c-14.04,15.66-28.55,31.86-48.79,39.73c-7.62,2.96-15.3,4.42-22.73,5.83c-6.42,1.22-12.48,2.37-18.08,4.39   C226.37,318.57,210.47,341.58,193.57,368.56z">
                            </path>
                            <rect x="430.11" y="241.09"
                                transform="matrix(0.4049 -0.9144 0.9144 0.4049 32.3169 551.8763)" width="20"
                                height="20.04"></rect>
                            <rect x="486.53" y="277.88" width="19.04" height="20"></rect>
                            <rect x="410.97" y="302.19"
                                transform="matrix(3.427153e-03 -1 1 3.427153e-03 107.3745 732.0615)" width="20"
                                height="19.95"></rect>
                            <rect x="366.46" y="268.73"
                                transform="matrix(0.5572 -0.8304 0.8304 0.5572 -65.3411 434.9198)" width="17.37"
                                height="20"></rect>
                            <rect x="331" y="319.27" transform="matrix(0.2613 -0.9653 0.9653 0.2613 -64.4503 571.2277)"
                                width="20" height="16.91"></rect>
                            <rect x="269.62" y="331.41"
                                transform="matrix(0.5403 -0.8415 0.8415 0.5403 -156.873 391.2334)" width="20"
                                height="15.55"></rect>
                            <path fill="#689F38"
                                d="M402.83,777.43c-3.74,0-7.48-0.23-11.19-0.71c-3.44-0.45-6.4-2.64-7.83-5.8c-11.73-25.98-5.34-61.16,15.9-87.54   c19.96-24.79,50.76-39.5,82.57-39.5c0.37,0,0.74,0,1.11,0.01c4.6,0.05,8.58,3.23,9.63,7.71c8.31,35.39,1.58,69.26-18.45,92.95   C457.12,765.18,429.88,777.43,402.83,777.43z M400.05,757.38c22.18,0.93,44.92-8.81,59.25-25.75   c14.43-17.06,20.04-41.3,15.84-67.43c-23.01,2.05-45.39,13.77-59.85,31.73C400.13,714.74,394.37,738.69,400.05,757.38z">
                            </path>
                            <path fill="#689F38"
                                d="M386.5,725.98c-0.03,0-0.06,0-0.09,0c-30.76-0.27-61.28-17.23-77.75-43.22c-16.6-26.2-18.63-60.68-5.55-94.6   c1.66-4.29,6.04-6.91,10.59-6.32c31.95,4.06,60.91,22.97,77.49,50.58c17.43,29.04,18.95,64.76,3.77,88.89   C393.14,724.22,389.94,725.98,386.5,725.98z M319.11,603.09c-7.74,25.31-5.5,50.09,6.46,68.97c11.88,18.75,33.07,31.51,55.17,33.62   c8.19-17.74,5.75-42.25-6.68-62.97C362.18,622.95,341.62,608.27,319.11,603.09z">
                            </path>
                            <path fill="#689F38"
                                d="M397.88,811.64l-20-0.02c0.04-51.75,0.04-100.96,0.04-100.96h20C397.92,710.67,397.92,759.89,397.88,811.64z">
                            </path>
                            <path fill="#689F38"
                                d="M406.28,768.8l-19.14-5.8c4.79-15.81,16.27-27.96,27.96-38.74c1.1-1.01,2.21-2.03,3.32-3.04   c9.22-8.43,17.94-16.39,23.13-26.24l17.69,9.32c-6.81,12.93-17.24,22.46-27.33,31.68c-1.09,0.99-2.17,1.99-3.25,2.98   C419.7,747.22,409.85,757.01,406.28,768.8z">
                            </path>
                            <path fill="#689F38"
                                d="M371.18,715.42c-1.16-11.76-8.95-22.51-16.43-31.48c-1.65-1.98-3.33-3.94-5.02-5.9c-7.8-9.08-15.86-18.47-21.15-30.13   l18.21-8.26c4.11,9.06,10.91,16.98,18.11,25.36c1.75,2.04,3.5,4.08,5.21,6.13c8.87,10.64,19.26,25.07,20.96,42.32L371.18,715.42z">
                            </path>
                            <rect x="120.34" y="153.98" width="86.5" height="20"></rect>
                            <rect x="227.84" y="153.98" width="22" height="20"></rect>
                            <path
                                d="M215.62,652.8c-30.19-38.64-49.35-84.78-55.42-133.43l19.85-2.48c5.62,45.07,23.37,87.8,51.33,123.59L215.62,652.8z">
                            </path>
                            <path
                                d="M196.25,821.45c-27.55-26.7-42.5-68.7-41.02-115.25c1.3-40.83,13.73-79.6,25.75-117.1l19.04,6.11   c-11.6,36.19-23.6,73.61-24.81,111.63c-1.3,40.92,11.44,77.46,34.95,100.25L196.25,821.45z">
                            </path>
                            <path
                                d="M908.12,882.2c-7.71-1.66-20.36-6.47-24.34-11.93c-5.34-7.32-9.62-16.3-14.15-25.81c-1.71-3.58-3.48-7.29-5.31-10.91   c-22.91-45.18-59.41-78.53-100.14-91.51c-0.06-0.02-0.12-0.03-0.17-0.05c-0.49-0.15-0.97-0.29-1.45-0.44   c-0.16-0.06-0.32-0.11-0.45-0.15c-1.36-0.44-2.66-0.89-3.91-1.35c-8.3-1.87-16.64-3-24.93-3.38c-4.47-0.2-8.92-0.2-13.35,0.03   c-11.55,0.57-22.89,2.62-33.73,6.11l-6.14-19.03c9.38-3.02,19.06-5.1,28.93-6.24c3.52-0.4,7.07-0.68,10.63-0.84   c3.7-0.18,7.41-0.22,11.14-0.11c-0.99-1.86-1.96-3.83-2.92-5.91c-2.45-5.31-4.49-9.94-6.3-14.02   c-4.88-11.05-8.73-19.77-16.46-32.83c-11.38-19.23-29.5-35.31-51.03-45.29c-21.26-9.85-45.05-13.42-66.99-10.04   c-5.34,0.82-9.07,5.74-8.4,11.1c1.97,16.01,9.56,30.78,16.91,45.06c7.48,14.54,14.54,28.27,15.68,42.52   c1.4,17.43-6.17,34.85-14.17,53.28c-0.85,1.96-1.7,3.91-2.54,5.87c-0.79,1.83-1.01,3.85-0.63,5.81   c5.87,30.89,21.29,60.51,43.87,84.69c-20.4,10.57-41.24,19.16-62.11,25.59c-4.73,1.46-7.69,6.16-6.95,11.05   c0.74,4.89,4.94,8.51,9.89,8.51h327.42c5.11,0,9.39-3.86,9.94-8.94C916.5,887.96,913.11,883.28,908.12,882.2z M818.18,833.23   c-4.91,5.66-10.48,10.85-16.53,15.43L789.6,832.7c4.94-3.74,9.47-7.96,13.47-12.58L818.18,833.23z M639.41,671.51   c8.54-3.85,18.81-4.91,28.19-2.91l-4.17,19.56c-5.22-1.11-11.14-0.52-15.81,1.58L639.41,671.51z M661.79,801.96   c-2.44,0-4.88-0.16-7.29-0.49l2.65-19.82c4.95,0.66,10.05,0.26,14.76-1.18l5.83,19.13C672.62,801.16,667.2,801.96,661.79,801.96z    M728.73,825.59l5.24,19.3c-4.8,1.31-9.37,4.39-12.85,8.69L705.58,841C711.68,833.46,719.9,827.99,728.73,825.59z">
                            </path>
                        </g>
                    </svg></svg>
                <defs>
                    <filter id="colors902487003">
                        <feColorMatrix type="matrix"
                            values="0 0 0 0 0.55078125  0 0 0 0 0.4296875  0 0 0 0 0.38671875  0 0 0 1 0"
                            class="icon-fecolormatrix"></feColorMatrix>
                    </filter>
                    <filter id="colorsf425935596">
                        <feColorMatrix type="matrix"
                            values="0 0 0 0 0.99609375  0 0 0 0 0.99609375  0 0 0 0 0.99609375  0 0 0 1 0"
                            class="icon-fecolormatrix"></feColorMatrix>
                    </filter>
                    <filter id="colorsb7125261628">
                        <feColorMatrix type="matrix" values="0 0 0 0 0  0 0 0 0 0  0 0 0 0 0  0 0 0 1 0"
                            class="icon-fecolormatrix"></feColorMatrix>
                    </filter>
                </defs>
            </g>
        </g>
        <g transform="translate(0,83.30772399902344)">
            <g data-gra="path-name" fill-rule="" fill="#8D6E63" class="tp-name iconsvg-namesvg">
                <g transform="scale(2.7400000000000015)">
                    <g>
                        <path
                            d="M2.68 0L2.68 0 1.62 0Q1.38 0 1.38-0.24L1.38-0.24 1.38-3.45 0.42-3.45Q0.18-3.45 0.18-3.68L0.18-3.68 0.18-4.48Q0.18-4.71 0.42-4.71L0.42-4.71 3.87-4.71Q4.11-4.71 4.11-4.48L4.11-4.48 4.11-3.68Q4.11-3.45 3.87-3.45L3.87-3.45 2.91-3.45 2.91-0.24Q2.91 0 2.68 0ZM5.99 0L5.99 0 4.98 0Q4.74 0 4.74-0.24L4.74-0.24 4.74-4.48Q4.74-4.71 4.98-4.71L4.98-4.71 5.99-4.71Q6.23-4.71 6.23-4.48L6.23-4.48 6.23-3.06 7.32-3.06 7.32-4.48Q7.32-4.71 7.56-4.71L7.56-4.71 8.57-4.71Q8.81-4.71 8.81-4.48L8.81-4.48 8.81-0.24Q8.81 0 8.57 0L8.57 0 7.56 0Q7.32 0 7.32-0.24L7.32-0.24 7.32-1.69 6.23-1.69 6.23-0.24Q6.23 0 5.99 0ZM11.04-1.15L11.04-0.24Q11.04 0 10.81 0L10.81 0 9.85 0Q9.61 0 9.61-0.24L9.61-0.24 9.61-1.96Q9.61-2.16 9.67-2.41 9.74-2.67 9.87-3.01L9.87-3.01 10.44-4.49Q10.51-4.71 10.77-4.71L10.77-4.71 12.53-4.71Q12.78-4.71 12.86-4.49L12.86-4.49 13.43-3.01Q13.56-2.67 13.62-2.41 13.68-2.16 13.68-1.96L13.68-1.96 13.68-0.24Q13.68 0 13.45 0L13.45 0 12.46 0Q12.2 0 12.2-0.24L12.2-0.24 12.2-1.15 11.04-1.15ZM11.42-3.34L11.42-3.34 11.11-2.34 12.14-2.34 11.83-3.34Q11.78-3.45 11.71-3.45L11.71-3.45 11.54-3.45Q11.46-3.45 11.42-3.34ZM15.7 0L15.7 0 14.72 0Q14.49 0 14.49-0.24L14.49-0.24 14.49-4.48Q14.49-4.71 14.72-4.71L14.72-4.71 15.4-4.71Q15.64-4.71 15.79-4.53L15.79-4.53 17.06-3.08 17.06-4.48Q17.06-4.71 17.29-4.71L17.29-4.71 18.27-4.71Q18.51-4.71 18.51-4.48L18.51-4.48 18.51-0.24Q18.51 0 18.27 0L18.27 0 17.29 0Q17.06 0 17.06-0.24L17.06-0.24 17.06-1.04 15.94-2.39 15.94-0.24Q15.94 0 15.7 0ZM20.66 0L20.66 0 19.65 0Q19.41 0 19.41-0.24L19.41-0.24 19.41-4.48Q19.41-4.71 19.65-4.71L19.65-4.71 20.66-4.71Q20.9-4.71 20.9-4.48L20.9-4.48 20.9-3.06 21.99-3.06 21.99-4.48Q21.99-4.71 22.23-4.71L22.23-4.71 23.24-4.71Q23.48-4.71 23.48-4.48L23.48-4.48 23.48-0.24Q23.48 0 23.24 0L23.24 0 22.23 0Q21.99 0 21.99-0.24L21.99-0.24 21.99-1.69 20.9-1.69 20.9-0.24Q20.9 0 20.66 0Z"
                            transform="translate(-0.18000000715255737, 5.239999771118164)"></path>
                    </g>
                    <g data-gra="path-name-1" fill="#8D6E63" transform="translate(26.299999237060547,0)">
                        <g transform="scale(1)">
                            <path
                                d="M2.64 0L2.64 0 0.57 0Q0.33 0 0.33-0.24L0.33-0.24 0.33-1Q0.33-1.24 0.57-1.24L0.57-1.24 2.33-1.24Q2.41-1.24 2.46-1.29 2.5-1.35 2.5-1.43L2.5-1.43Q2.5-1.54 2.46-1.59 2.41-1.64 2.33-1.65L2.33-1.65 1.35-1.79Q0.89-1.86 0.61-2.09 0.33-2.32 0.33-2.87L0.33-2.87 0.33-3.56Q0.33-4.12 0.69-4.42 1.05-4.71 1.69-4.71L1.69-4.71 3.52-4.71Q3.76-4.71 3.76-4.48L3.76-4.48 3.76-3.7Q3.76-3.46 3.52-3.46L3.52-3.46 2-3.46Q1.82-3.46 1.82-3.26L1.82-3.26Q1.82-3.08 2-3.06L2-3.06 2.97-2.92Q3.28-2.88 3.51-2.76 3.74-2.65 3.86-2.43 3.99-2.2 3.99-1.84L3.99-1.84 3.99-1.15Q3.99-0.6 3.63-0.3 3.27 0 2.64 0ZM8.7-3.47L8.7-1.24Q8.7-0.94 8.61-0.69 8.52-0.44 8.3-0.27 8.07-0.09 7.68 0 7.28 0.1 6.67 0.1L6.67 0.1Q6.05 0.1 5.66 0 5.26-0.09 5.04-0.27 4.82-0.44 4.72-0.69 4.63-0.94 4.63-1.24L4.63-1.24 4.63-3.47Q4.63-3.77 4.72-4.01 4.82-4.26 5.04-4.44 5.26-4.61 5.66-4.71 6.05-4.81 6.67-4.81L6.67-4.81Q6.97-4.81 7.23-4.78 7.48-4.76 7.67-4.71L7.67-4.71Q7.83-4.72 7.87-4.76 7.92-4.81 7.92-4.9L7.92-4.9 7.92-5.04Q7.92-5.16 7.96-5.2 8-5.24 8.11-5.24L8.11-5.24 8.84-5.24Q9.07-5.24 9.07-5.01L9.07-5.01 9.07-4.72Q9.07-4.46 8.98-4.26 8.89-4.06 8.63-3.95L8.63-3.95Q8.67-3.83 8.68-3.72 8.7-3.6 8.7-3.47L8.7-3.47ZM6.12-3.23L6.12-1.47Q6.12-1.34 6.22-1.25 6.31-1.16 6.67-1.16L6.67-1.16Q7.03-1.16 7.12-1.25 7.22-1.34 7.22-1.47L7.22-1.47 7.22-3.23Q7.22-3.36 7.12-3.45 7.03-3.53 6.67-3.53L6.67-3.53Q6.31-3.53 6.22-3.45 6.12-3.36 6.12-3.23L6.12-3.23ZM10.81 0L10.81 0 9.83 0Q9.59 0 9.59-0.24L9.59-0.24 9.59-4.48Q9.59-4.71 9.83-4.71L9.83-4.71 10.51-4.71Q10.74-4.71 10.89-4.53L10.89-4.53 12.16-3.08 12.16-4.48Q12.16-4.71 12.4-4.71L12.4-4.71 13.38-4.71Q13.62-4.71 13.62-4.48L13.62-4.48 13.62-0.24Q13.62 0 13.38 0L13.38 0 12.4 0Q12.16 0 12.16-0.24L12.16-0.24 12.16-1.04 11.04-2.39 11.04-0.24Q11.04 0 10.81 0Z"
                                transform="translate(-0.33000001311302185, 5.239999771118164)"></path>
                        </g>
                    </g>
                </g>
            </g>
            <!---->
        </g>
    </g>
    <defs v-gra="od"></defs>
</svg>